<?xml version="1.0" encoding="windows-1252"?>
<!-- Generator: Adobe Illustrator 19.0.0, SVG Export Plug-In . SVG Version: 6.00 Build 0)  -->
<svg version="1.1" id="Capa_1" xmlns="http://www.w3.org/2000/svg" xmlns:xlink="http://www.w3.org/1999/xlink" x="0px" y="0px" viewBox="0 0 511.878 511.878" style="enable-background:new 0 0 511.878 511.878;" xml:space="preserve">
<polygon style="fill:#E6E9ED;" points="247.953,364.957 155.97,308.964 155.97,332.965 177.667,401.134 247.945,372.955   318.228,401.134 339.924,332.965 339.924,308.964 "/>
<g>
	<path style="fill:#656D78;" d="M491.868,444.185c0,31.992,0,63.983,0,63.983H290.75l57.158-55.985l-7.998-23.993l39.988-55.985   l-17.158-17.151c18.072,7.919,69.465,28.828,81.141,33.147C475.872,400.119,491.868,412.194,491.868,444.185z"/>
	<polygon style="fill:#656D78;" points="290.75,508.168 278.76,508.168 318.478,399.556 339.91,332.215 379.898,372.205    339.91,428.19 347.908,452.183  "/>
</g>
<g style="opacity:0.2;">
	<polygon style="fill:#FFFFFF;" points="290.75,508.168 278.76,508.168 318.478,399.556 339.91,332.215 379.898,372.205    339.91,428.19 347.908,452.183  "/>
</g>
<g>
	<path style="fill:#656D78;" d="M4.003,444.185c0,31.992,0,63.983,0,63.983H205.12l-57.157-55.985l7.998-23.993l-39.989-55.985   l17.16-17.151c-18.073,7.919-69.466,28.828-81.142,33.147C19.999,400.119,4.003,412.194,4.003,444.185z"/>
	<polygon style="fill:#656D78;" points="177.394,399.556 155.962,332.215 115.973,372.205 155.962,428.19 147.964,452.183    205.121,508.168 217.11,508.168  "/>
</g>
<g style="opacity:0.2;">
	<polygon style="fill:#FFFFFF;" points="205.121,508.168 217.11,508.168 177.394,399.556 155.962,332.215 115.973,372.205    155.962,428.19 147.964,452.183  "/>
</g>
<g style="opacity:0.2;">
	<path style="fill:#FFFFFF;" d="M115.973,371.916l17.16-16.862c-22.775,9.544-71.754,29.679-81.142,33.147   c-31.992,11.918-47.988,23.993-47.988,55.984c0,31.992,0,63.983,0,63.983h15.996c0-16.824,0-27.626,0-47.987   c0-31.991,15.996-44.066,47.987-55.985c7.092-2.624,35.081-14.066,55.114-22.298L115.973,371.916z"/>
</g>
<g style="opacity:0.5;">
	<path style="opacity:0.3;enable-background:new    ;" d="M379.898,372.205l-17.158-17.151   c22.773,9.544,71.754,29.679,81.141,33.147c31.992,11.918,47.988,23.993,47.988,55.984c0,31.992,0,63.983,0,63.983h-15.996   c0-16.824,0-27.626,0-47.987c0-31.991-15.996-44.066-47.986-55.985c-7.092-2.624-35.023-13.848-55.057-22.088L379.898,372.205z"/>
</g>
<polygon style="fill:#CCD1D9;" points="247.938,372.205 318.228,400.345 278.76,508.168 217.11,508.168 177.659,400.384 "/>
<polygon style="fill:#ED5565;" points="267.928,412.194 227.943,412.194 214.868,385.435 247.938,372.205 281.01,385.435 "/>
<g style="opacity:0.3;">
	<polygon style="fill:#FFFFFF;" points="218.445,392.746 227.943,412.194 235.94,412.194 225.146,390.098  "/>
</g>
<g style="opacity:0.3;">
	<polygon points="277.424,392.746 267.928,412.194 259.935,412.194 270.724,390.098  "/>
</g>
<polygon style="fill:#ED5565;" points="275.924,506.918 219.945,506.918 219.945,452.183 235.94,412.194 259.935,412.194   275.924,452.183 "/>
<g style="opacity:0.3;">
	<polygon style="fill:#FFFFFF;" points="243.939,412.194 235.94,412.194 219.945,452.183 219.945,506.918 227.943,506.918    227.943,452.183  "/>
</g>
<g style="opacity:0.3;">
	<polygon points="251.937,412.194 259.935,412.194 275.924,452.183 275.924,506.918 271.161,506.918 267.928,506.918    267.928,452.183  "/>
</g>
<g style="opacity:0.3;">
	<polygon points="247.211,372.501 177.659,400.384 180.26,408.562 247.945,380.953 315.806,407.96 318.228,400.345 248.688,372.509    247.953,372.955  "/>
</g>
<path style="fill:#965353;" d="M320.859,65.037c0,0,85.898-11.911,66.139,114.93l-35.107-57.422c0,0-55.664,22.954-105.972,22.954  c-50.385,0-105.409-22.954-105.409-22.954l-33.432,57.422C87.16-32.374,335.174,6.178,343.892,7.615  C306.299,23.048,320.859,65.037,320.859,65.037z"/>
<g style="opacity:0.3;">
	<path d="M320.859,65.037c0,0,59.555-10.474,52.65,92.866l13.488,22.064C406.757,53.127,320.859,65.037,320.859,65.037z"/>
</g>
<g style="opacity:0.3;">
	<path style="fill:#FFFFFF;" d="M301.302,4.108C229.04,2.437,92.077,20.034,107.077,179.967l15.039-25.829   C123.541,28.289,231.239,5.514,301.302,4.108z"/>
</g>
<path style="fill:#EAC6BB;" d="M386.997,179.967v15.996c0,91.577-86.695,167.955-139.958,167.955  c-53.267,0-139.962-76.378-139.962-167.955v-15.996l33.432-57.422c0,0,55.024,22.954,105.409,22.954  c50.308,0,105.972-22.954,105.972-22.954L386.997,179.967z"/>
<g style="opacity:0.5;">
	<path style="fill:#FFFFFF;" d="M123.072,195.963v-15.996l30.574-52.51c-8.182-2.858-13.137-4.912-13.137-4.912l-33.432,57.422   v15.996c0,91.577,86.695,167.955,139.962,167.955c2.585,0,5.269-0.234,7.998-0.586   C201.536,356.419,123.072,283.095,123.072,195.963z"/>
</g>
<g style="opacity:0.2;">
	<path d="M371.001,195.963v-15.996l-30.568-52.51c8.176-2.858,13.137-4.912,13.137-4.912l33.428,57.422v15.996   c0,91.577-86.695,167.955-139.958,167.955c-2.585,0-5.268-0.234-7.998-0.586C292.539,356.419,371.001,283.095,371.001,195.963z"/>
</g>
<g>
	<path style="fill:#FFCE54;" d="M419.896,355.919c4.396,0,7.998,3.602,7.998,7.998c0,4.397-3.602,7.998-7.998,7.998   c-4.398,0-7.998-3.601-7.998-7.998C411.898,359.521,415.497,355.919,419.896,355.919z"/>
	<path style="fill:#FFCE54;" d="M459.884,443.896h47.988c0,13.278-10.717,23.994-23.994,23.994S459.884,457.174,459.884,443.896z"/>
	<path style="fill:#FFCE54;" d="M467.882,499.881v7.998h-95.975v-7.998c0-4.397,3.602-7.998,7.998-7.998h39.99h39.988   C464.283,491.883,467.882,495.484,467.882,499.881z"/>
</g>
<g style="opacity:0.5;">
	<path style="fill:#FFFFFF;" d="M387.904,491.883h-7.998c-4.396,0-7.998,3.601-7.998,7.998v7.998h7.998v-7.998   C379.906,495.484,383.507,491.883,387.904,491.883z"/>
</g>
<g style="opacity:0.2;">
	<path d="M451.885,491.883h7.998c4.398,0,7.998,3.601,7.998,7.998v7.998h-7.998v-7.998   C459.884,495.484,456.285,491.883,451.885,491.883z"/>
</g>
<path style="fill:#FFCE54;" d="M331.919,443.896h47.986c0,13.278-10.715,23.994-23.994,23.994  C342.634,467.89,331.919,457.174,331.919,443.896z"/>
<g style="opacity:0.5;">
	<path style="fill:#FFFFFF;" d="M339.918,443.896h-7.998c0,13.278,10.715,23.994,23.992,23.994c1.367,0,2.688-0.18,4-0.398   C348.553,465.585,339.918,455.807,339.918,443.896z"/>
</g>
<g style="opacity:0.2;">
	<path d="M371.908,443.896h7.998c0,13.278-10.715,23.994-23.994,23.994c-1.373,0-2.693-0.18-3.998-0.398   C363.268,465.585,371.908,455.807,371.908,443.896z"/>
</g>
<g style="opacity:0.5;">
	<path style="fill:#FFFFFF;" d="M467.882,443.896h-7.998c0,13.278,10.717,23.994,23.994,23.994c1.367,0,2.686-0.18,3.998-0.398   C476.521,465.585,467.882,455.807,467.882,443.896z"/>
</g>
<g style="opacity:0.2;">
	<path d="M499.875,443.896h7.998c0,13.278-10.717,23.994-23.994,23.994c-1.375,0-2.695-0.18-4-0.398   C491.236,465.585,499.875,455.807,499.875,443.896z"/>
</g>
<g>
	<path style="fill:#3A3847;" d="M247.063,367.917c-55.536,0-143.961-78.689-143.961-171.954c0-2.21,1.788-3.999,3.999-3.999   c2.21,0,3.999,1.789,3.999,3.999c0,88.921,83.513,163.957,135.963,163.957s135.96-75.035,135.96-163.957   c0-2.21,1.787-3.999,3.998-3.999s4,1.789,4,3.999C391.021,289.227,302.599,367.917,247.063,367.917z"/>
	<path style="fill:#3A3847;" d="M107.101,183.966c-0.285,0-0.574-0.031-0.859-0.094c-1.699-0.375-2.96-1.797-3.124-3.53   c-5.026-53.587,6.451-96.162,34.112-126.537C177.726,9.334,244.126,0,292.695,0c29.445,0,50.9,3.523,51.799,3.671   c1.766,0.297,3.117,1.727,3.32,3.5c0.195,1.773-0.805,3.468-2.453,4.147c-28.461,11.708-23.9,40.192-21.549,49.487   c0.805-0.039,1.727-0.062,2.756-0.062c11.365,0,32.812,2.772,48.699,21.322c17.432,20.354,22.721,53.509,15.707,98.521   c-0.258,1.655-1.523,2.976-3.164,3.304c-1.641,0.344-3.326-0.398-4.193-1.828l-33.438-54.556   c-12.645,4.89-60.016,21.994-104.315,21.994c-44.113,0-90.925-17.011-103.617-21.963l-31.69,54.446   C109.83,183.232,108.502,183.966,107.101,183.966z M351.835,118.546c1.352,0,2.664,0.687,3.406,1.905l29.328,47.854   c4.225-36.943-0.938-64.178-15.379-81.041c-13.8-16.119-32.632-18.525-42.622-18.525c-3.092,0-5.014,0.242-5.146,0.266   c-1.867,0.265-3.693-0.851-4.318-2.656c-0.141-0.406-12.311-36.748,14.215-56.329c-9.021-0.96-22.588-2.023-38.623-2.023   c-46.956,0-111.021,8.881-149.549,51.197c-23.857,26.196-34.921,62.319-32.952,107.518l26.879-46.183   c1.003-1.733,3.151-2.452,4.995-1.679c0.543,0.227,54.899,22.65,103.796,22.65c48.979,0,103.894-22.431,104.44-22.658   C350.803,118.64,351.32,118.546,351.835,118.546z"/>
	<path style="fill:#3A3847;" d="M355.911,511.878H4.007c-2.21,0-3.999-1.789-3.999-3.999v-63.983   c0-34.365,17.78-47.502,50.592-59.733c12.411-4.554,27.774-10.63,41.11-16.254l6.693-2.944c2.054-0.867,4.382,0.07,5.252,2.094   c0.871,2.03-0.066,4.381-2.097,5.256l-6.717,2.96c-13.469,5.671-28.961,11.802-41.469,16.395   c-30.733,11.449-45.366,22.187-45.366,52.226v59.984h347.906c2.211,0,4,1.788,4,3.999   C359.911,510.089,358.122,511.878,355.911,511.878z"/>
	<path style="fill:#3A3847;" d="M267.936,415.904h-39.99c-1.515,0-2.898-0.852-3.577-2.21l-7.998-15.996   c-0.988-1.976-0.188-4.374,1.788-5.366c1.976-0.983,4.374-0.188,5.366,1.789l6.893,13.785h35.042l6.896-13.785   c0.984-1.977,3.396-2.772,5.365-1.789c1.977,0.992,2.773,3.391,1.789,5.366l-7.998,15.996   C270.833,415.052,269.451,415.904,267.936,415.904z"/>
	<path style="fill:#3A3847;" d="M219.949,455.893c-0.496,0-1-0.086-1.484-0.281c-2.05-0.82-3.05-3.147-2.229-5.202l15.995-39.988   c0.816-2.055,3.171-3.055,5.198-2.227c2.05,0.82,3.05,3.147,2.229,5.194l-15.995,39.989   C223.038,454.948,221.534,455.893,219.949,455.893z"/>
	<path style="fill:#3A3847;" d="M275.932,455.893c-1.584,0-3.092-0.945-3.717-2.515l-15.992-39.989   c-0.82-2.047,0.18-4.374,2.23-5.194c2.027-0.82,4.381,0.172,5.197,2.227l15.992,39.988c0.82,2.055-0.18,4.382-2.227,5.202   C276.932,455.807,276.424,455.893,275.932,455.893z"/>
	<path style="fill:#3A3847;" d="M307.924,399.908c-0.5,0-1-0.086-1.484-0.281l-59.984-23.993c-2.05-0.82-3.05-3.147-2.229-5.202   c0.816-2.054,3.151-3.054,5.198-2.226l59.984,23.993c2.047,0.82,3.045,3.148,2.227,5.194   C311.01,398.963,309.51,399.908,307.924,399.908z"/>
	<path style="fill:#3A3847;" d="M188.516,495.882c-1.015,0-2.03-0.383-2.808-1.148l-40.548-39.989   c-1.085-1.069-1.468-2.663-0.984-4.116l7.354-22.057l-38.806-54.328c-1.136-1.594-0.957-3.773,0.426-5.155l39.989-39.99   c1.562-1.562,4.093-1.562,5.655,0s1.562,4.093,0,5.654l-37.595,37.6l38.021,53.228c0.746,1.039,0.945,2.375,0.539,3.585   l-7.209,21.635l38.775,38.24c1.574,1.547,1.589,4.077,0.039,5.654C190.582,495.484,189.547,495.882,188.516,495.882z"/>
	<path style="fill:#3A3847;" d="M211.951,495.882c-1.652,0-3.198-1.031-3.776-2.679l-55.981-159.957   c-0.73-2.078,0.367-4.366,2.453-5.093c2.089-0.727,4.37,0.367,5.092,2.453l55.989,159.957c0.726,2.085-0.371,4.365-2.457,5.1   C212.834,495.812,212.389,495.882,211.951,495.882z"/>
	<path style="fill:#3A3847;" d="M283.931,495.882c-0.438,0-0.883-0.07-1.318-0.219c-2.086-0.734-3.188-3.015-2.461-5.1   l55.992-159.957c0.727-2.086,3.008-3.188,5.092-2.453c2.086,0.727,3.18,3.015,2.453,5.093l-55.984,159.957   C287.126,494.851,285.579,495.882,283.931,495.882z"/>
	<path style="fill:#3A3847;" d="M187.958,399.908c-1.585,0-3.089-0.944-3.714-2.515c-0.82-2.046,0.18-4.374,2.23-5.194   l59.983-23.993c2.027-0.82,4.382,0.172,5.198,2.226c0.82,2.055-0.18,4.382-2.23,5.202l-59.984,23.993   C188.957,399.822,188.453,399.908,187.958,399.908z"/>
	<path style="fill:#3A3847;" d="M247.941,495.882c-2.21,0-3.999-1.789-3.999-3.999v-55.985c0-2.21,1.789-3.998,3.999-3.998   c2.21,0,3.999,1.788,3.999,3.998v55.985C251.94,494.093,250.151,495.882,247.941,495.882z"/>
	<path style="fill:#3A3847;" d="M403.9,367.917h-47.988c-2.209,0-3.998-1.788-3.998-3.999c0-2.21,1.789-3.998,3.998-3.998H403.9   c2.211,0,3.998,1.788,3.998,3.998C407.898,366.128,406.111,367.917,403.9,367.917z"/>
	<path style="fill:#3A3847;" d="M483.878,367.917h-47.988c-2.209,0-3.998-1.788-3.998-3.999c0-2.21,1.789-3.998,3.998-3.998h47.988   c2.211,0,3.998,1.788,3.998,3.998C487.876,366.128,486.089,367.917,483.878,367.917z"/>
	<path style="fill:#3A3847;" d="M355.911,471.889c-15.432,0-27.992-12.56-27.992-27.993c0-2.21,1.789-3.998,4-3.998   c2.209,0,3.998,1.788,3.998,3.998c0,11.028,8.967,19.995,19.994,19.995c11.021,0,19.996-8.967,19.996-19.995   c0-2.21,1.787-3.998,3.998-3.998s4,1.788,4,3.998C383.906,459.33,371.345,471.889,355.911,471.889z"/>
	<path style="fill:#3A3847;" d="M379.906,447.895h-47.987c-2.211,0-4-1.788-4-3.999c0-2.21,1.789-3.998,4-3.998h47.986   c2.211,0,4,1.788,4,3.998C383.906,446.107,382.117,447.895,379.906,447.895z"/>
	<path style="fill:#3A3847;" d="M331.919,439.898c-0.531,0-1.062-0.102-1.578-0.32c-2.031-0.875-2.969-3.227-2.102-5.249   l23.994-55.985c0.867-2.038,3.234-2.976,5.248-2.101c2.031,0.867,2.977,3.218,2.102,5.249l-23.994,55.984   C334.941,438.992,333.466,439.898,331.919,439.898z"/>
	<path style="fill:#3A3847;" d="M379.906,439.898c-1.555,0-3.029-0.906-3.678-2.422l-23.994-55.984   c-0.867-2.031,0.07-4.382,2.102-5.249c2.014-0.883,4.373,0.062,5.248,2.101l23.994,55.985c0.875,2.022-0.07,4.374-2.102,5.249   C380.967,439.796,380.428,439.898,379.906,439.898z"/>
	<path style="fill:#3A3847;" d="M483.878,471.889c-15.434,0-27.992-12.56-27.992-27.993c0-2.21,1.787-3.998,3.998-3.998   s4,1.788,4,3.998c0,11.028,8.965,19.995,19.994,19.995c11.02,0,19.994-8.967,19.994-19.995c0-2.21,1.789-3.998,4-3.998   c2.209,0,3.998,1.788,3.998,3.998C511.871,459.33,499.311,471.889,483.878,471.889z"/>
	<path style="fill:#3A3847;" d="M507.872,447.895h-47.988c-2.211,0-3.998-1.788-3.998-3.999c0-2.21,1.787-3.998,3.998-3.998h47.988   c2.209,0,3.998,1.788,3.998,3.998C511.871,446.107,510.082,447.895,507.872,447.895z"/>
	<path style="fill:#3A3847;" d="M459.884,439.898c-0.531,0-1.062-0.102-1.578-0.32c-2.029-0.875-2.967-3.227-2.1-5.249   l23.992-55.985c0.875-2.038,3.227-2.976,5.25-2.101c2.029,0.867,2.975,3.218,2.1,5.249l-23.992,55.984   C462.908,438.992,461.431,439.898,459.884,439.898z"/>
	<path style="fill:#3A3847;" d="M507.872,439.898c-1.555,0-3.031-0.906-3.68-2.422l-23.994-55.984   c-0.867-2.031,0.07-4.382,2.102-5.249c2.008-0.883,4.381,0.062,5.248,2.101l23.994,55.985c0.875,2.022-0.07,4.374-2.102,5.249   C508.932,439.796,508.393,439.898,507.872,439.898z"/>
	<path style="fill:#3A3847;" d="M419.896,375.915c-6.615,0-11.998-5.382-11.998-11.997s5.383-11.996,11.998-11.996   s11.996,5.381,11.996,11.996S426.51,375.915,419.896,375.915z M419.896,359.919c-2.211,0-4,1.796-4,3.998   c0,2.211,1.789,3.999,4,3.999c2.201,0,3.998-1.788,3.998-3.999C423.893,361.715,422.096,359.919,419.896,359.919z"/>
	<path style="fill:#3A3847;" d="M419.896,359.919c-2.211,0-4-1.789-4-4v-7.997c0-2.211,1.789-3.999,4-3.999   c2.209,0,3.998,1.788,3.998,3.999v7.997C423.893,358.13,422.104,359.919,419.896,359.919z"/>
	<path style="fill:#3A3847;" d="M419.896,495.882c-2.211,0-4-1.789-4-3.999v-111.97c0-2.211,1.789-3.999,4-3.999   c2.209,0,3.998,1.788,3.998,3.999v111.97C423.893,494.093,422.104,495.882,419.896,495.882z"/>
	<path style="fill:#3A3847;" d="M459.884,495.882h-79.979c-2.211,0-3.998-1.789-3.998-3.999s1.787-3.999,3.998-3.999h79.979   c2.211,0,4,1.789,4,3.999S462.095,495.882,459.884,495.882z"/>
	<path style="fill:#3A3847;" d="M371.908,503.88c-2.209,0-3.998-1.789-3.998-3.999c0-6.615,5.381-11.997,11.996-11.997   c2.211,0,4,1.789,4,3.999s-1.789,3.999-4,3.999s-3.998,1.797-3.998,3.999C375.908,502.091,374.118,503.88,371.908,503.88z"/>
	<path style="fill:#3A3847;" d="M467.882,503.88c-2.211,0-3.998-1.789-3.998-3.999c0-2.202-1.797-3.999-4-3.999   c-2.211,0-3.998-1.789-3.998-3.999s1.787-3.999,3.998-3.999c6.615,0,11.998,5.382,11.998,11.997   C471.882,502.091,470.092,503.88,467.882,503.88z"/>
	<path style="fill:#3A3847;" d="M371.908,511.878c-2.209,0-3.998-1.789-3.998-3.999v-7.998c0-2.21,1.789-3.999,3.998-3.999   c2.211,0,4,1.789,4,3.999v7.998C375.908,510.089,374.118,511.878,371.908,511.878z"/>
	<path style="fill:#3A3847;" d="M467.882,511.878c-2.211,0-3.998-1.789-3.998-3.999v-7.998c0-2.21,1.787-3.999,3.998-3.999   s4,1.789,4,3.999v7.998C471.882,510.089,470.092,511.878,467.882,511.878z"/>
	<path style="fill:#3A3847;" d="M467.882,511.878h-95.975c-2.209,0-3.998-1.789-3.998-3.999c0-2.211,1.789-3.999,3.998-3.999h95.975   c2.211,0,4,1.788,4,3.999C471.882,510.089,470.092,511.878,467.882,511.878z"/>
</g>
<g>
</g>
<g>
</g>
<g>
</g>
<g>
</g>
<g>
</g>
<g>
</g>
<g>
</g>
<g>
</g>
<g>
</g>
<g>
</g>
<g>
</g>
<g>
</g>
<g>
</g>
<g>
</g>
<g>
</g>
</svg>